# xmcd
#
# Track frame offsets: 
#        150
#        12742
#        24415
#        35905
#        48570
#        58372
#        70800
#        86607
#        106955
#        122065
#        139222
#
# Disc length: 2083 seconds
#
# Revision: 7
# Processed by: cddbd v1.5.2PL0 Copyright (c) Steve Scherf et al.
# Submitted via: ExactAudioCopyFreeDBPlugin 1.0
#
DISCID=a308210b
DTITLE=Albert King - Born Under a Bad Sign [RM 2002]
DYEAR=1967
DGENRE=Blues
TTITLE0=Born Under a Bad Sign
TTITLE1=Crosscut Saw
TTITLE2=Kansas City
TTITLE3=Oh, Pretty Woman
TTITLE4=Down Don't Bother Me
TTITLE5=The Hunter
TTITLE6=I Almost Lost My Mind
TTITLE7=Personal Manager
TTITLE8=Laundromat Blues
TTITLE9=As the Years Go Passing By
TTITLE10=The Very Thought of You
EXTD=© 2002\nLabel: Stax Records (Fantasy Inc.]\nSCD24 723-2\n24 BIT R
EXTD=emastered
EXTT0=
EXTT1=
EXTT2=
EXTT3=
EXTT4=
EXTT5=
EXTT6=
EXTT7=
EXTT8=
EXTT9=
EXTT10=
PLAYORDER=
